<svg width="40" height="40" viewBox="0 0 40 40" fill="none" xmlns="http://www.w3.org/2000/svg">
<path d="M20 8.33337C17.0744 8.33345 14.2004 9.10361 11.6668 10.5664C9.1332 12.0293 7.0293 14.1332 5.56654 16.6669C4.10379 19.2005 3.33372 22.0746 3.33374 25.0001C3.33376 27.9257 4.10386 30.7998 5.56665 33.3334C5.78766 33.7179 6.15239 33.999 6.5806 34.1146C7.00881 34.2302 7.46542 34.1711 7.84998 33.95C8.23455 33.729 8.51556 33.3643 8.63121 32.9361C8.74686 32.5079 8.68766 32.0513 8.46665 31.6667C7.28572 29.6436 6.66446 27.3426 6.66665 25C6.66745 22.9553 7.13849 20.9382 8.04336 19.1046C8.94823 17.2711 10.2627 15.6702 11.8851 14.4257C13.5075 13.1813 15.3943 12.3267 17.3998 11.9279C19.4052 11.5291 21.4755 11.597 23.4505 12.1261C25.4256 12.6553 27.2524 13.6316 28.7899 14.9795C30.3274 16.3275 31.5342 18.011 32.3172 19.8998C33.1001 21.7887 33.4381 23.8323 33.3051 25.8727C33.172 27.9131 32.5715 29.8955 31.55 31.6667C31.4398 31.8569 31.3683 32.0671 31.3397 32.285C31.311 32.503 31.3258 32.7245 31.3831 32.9367C31.4404 33.1489 31.5392 33.3477 31.6736 33.5217C31.8081 33.6956 31.9757 33.8412 32.1667 33.95C32.5493 34.1673 33.0024 34.2244 33.4271 34.1089C33.8517 33.9934 34.2135 33.7146 34.4333 33.3334C35.8961 30.7998 36.6662 27.9257 36.6662 25.0001C36.6662 22.0746 35.8962 19.2005 34.4334 16.6669C32.9707 14.1332 30.8668 12.0293 28.3332 10.5664C25.7996 9.10361 22.9256 8.33345 20 8.33337ZM24.7333 17.9334L22.15 20.5C21.4813 20.1703 20.7456 19.9992 20 20C19.0111 20 18.0444 20.2933 17.2221 20.8427C16.3999 21.3921 15.759 22.173 15.3806 23.0866C15.0021 24.0003 14.9031 25.0056 15.0961 25.9755C15.289 26.9454 15.7652 27.8363 16.4644 28.5356C17.1637 29.2348 18.0546 29.711 19.0245 29.904C19.9944 30.0969 20.9998 29.9979 21.9134 29.6194C22.827 29.241 23.6079 28.6001 24.1573 27.7779C24.7067 26.9556 25 25.9889 25 25C24.9988 24.26 24.8278 23.5302 24.5 22.8667L27.0833 20.3C27.2395 20.1451 27.3635 19.9608 27.4481 19.7577C27.5328 19.5546 27.5763 19.3367 27.5763 19.1167C27.5763 18.8967 27.5328 18.6788 27.4481 18.4757C27.3635 18.2726 27.2395 18.0883 27.0833 17.9334C26.771 17.623 26.3486 17.4487 25.9083 17.4487C25.468 17.4487 25.0456 17.623 24.7333 17.9334ZM20 26.6667C19.558 26.6667 19.134 26.4911 18.8215 26.1786C18.5089 25.866 18.3333 25.4421 18.3333 25C18.3333 24.558 18.5089 24.1341 18.8215 23.8215C19.134 23.509 19.558 23.3334 20 23.3334C20.4349 23.3308 20.8535 23.4982 21.1667 23.8C21.3261 23.9564 21.4526 24.1431 21.5385 24.3493C21.6244 24.5554 21.668 24.7767 21.6667 25C21.6667 25.4421 21.4911 25.866 21.1785 26.1786C20.8659 26.4911 20.442 26.6667 20 26.6667Z" fill="#13AADC"/>
</svg>
