<svg width="40" height="40" viewBox="0 0 40 40" fill="none" xmlns="http://www.w3.org/2000/svg">
<path d="M20 2.5C15.3587 2.5 10.9075 4.34374 7.62563 7.62563C4.34374 10.9075 2.5 15.3587 2.5 20C2.5 24.6413 4.34374 29.0925 7.62563 32.3744C10.9075 35.6563 15.3587 37.5 20 37.5C24.6413 37.5 29.0925 35.6563 32.3744 32.3744C35.6563 29.0925 37.5 24.6413 37.5 20C37.5 15.3587 35.6563 10.9075 32.3744 7.62563C29.0925 4.34374 24.6413 2.5 20 2.5ZM16.8625 5.3375C17.0625 5.725 17.2625 6.0875 17.475 6.4625C18.425 8.1625 19.2625 9.625 18.725 11.5875C18.5125 12.4375 17.475 12.8375 16.05 13.3375C15.0278 13.5789 14.0982 14.1133 13.375 14.875C12.8855 15.6019 12.5807 16.4372 12.4871 17.3084C12.3934 18.1797 12.5137 19.0607 12.8375 19.875C13.075 20.8 13.2125 21.375 12.9625 21.75C12.7125 22.125 12.775 21.975 12.1125 22.0625C11.3672 22.1092 10.6424 22.3248 9.99269 22.693C9.34302 23.0611 8.78557 23.5722 8.3625 24.1875C7.64122 25.2342 7.23755 26.4669 7.2 27.7375C5.76697 25.4106 5.00556 22.7327 5 20C5.0013 16.5677 6.17971 13.2396 8.33855 10.5712C10.4974 7.90275 13.5061 6.05543 16.8625 5.3375ZM9.8875 31.05C9.6875 29.6375 9.375 27.0875 10.375 25.75C10.6032 25.3944 10.9177 25.1023 11.2893 24.9012C11.661 24.7001 12.0775 24.5965 12.5 24.6C12.9966 24.5698 13.4798 24.427 13.913 24.1822C14.3462 23.9375 14.7179 23.5973 15 23.1875C15.3188 22.5947 15.5021 21.9385 15.5367 21.2662C15.5713 20.594 15.4563 19.9224 15.2 19.3C14.875 18.05 14.7 17.2125 15.325 16.375C15.8011 16.0779 16.3195 15.8545 16.8625 15.7125C18.45 15.175 20.6125 14.4625 21.1625 12.1625C21.8625 9.25 20.6625 7.1625 19.6 5.225L19.5375 5H20C22.8288 5 25.6 5.8075 27.9875 7.325C26.673 9.35961 25.0923 11.2093 23.2875 12.825C21.5625 14.3875 22.825 16.1875 23.6625 17.375C24.1194 17.8648 24.4732 18.4413 24.703 19.0705C24.9327 19.6997 25.0337 20.3686 25 21.0375C24.9098 21.386 24.9107 21.7518 25.0027 22.0999C25.0946 22.4479 25.2745 22.7665 25.525 23.025C25.9037 23.2805 26.3418 23.4343 26.7972 23.4715C27.2525 23.5087 27.7098 23.4281 28.125 23.2375C28.425 23.1525 28.7287 23.09 29.0375 23.05C29.175 23.525 28.9125 23.9125 27.7875 24.95C26.6625 25.9875 25.175 27.3875 25.625 29.625C25.7844 30.2685 26.0786 30.8708 26.488 31.3923C26.8974 31.9137 27.4127 32.3424 28 32.65C25.2277 34.4198 21.9477 35.2226 18.6714 34.9331C15.3951 34.6437 12.3066 33.2784 9.8875 31.05ZM30.1375 31.05L29.65 30.7375C28.775 30.2125 28.2375 29.8375 28.1 29.15C27.9625 28.4625 28.4125 27.8375 29.525 26.8C30.6375 25.7625 32.1875 24.3 31.3625 22.0875C30.6 20.075 28.5 20.5875 27.55 20.8375C27.5205 19.0488 26.871 17.3257 25.7125 15.9625C25.3995 15.587 25.1465 15.1654 24.9625 14.7125C26.8796 12.996 28.5609 11.0331 29.9625 8.875C31.5254 10.2651 32.7789 11.9679 33.6419 13.8732C34.5049 15.7785 34.9581 17.8438 34.9723 19.9354C34.9864 22.027 34.5611 24.0982 33.724 26.015C32.8868 27.9318 31.6564 29.6514 30.1125 31.0625L30.1375 31.05Z" fill="#DD7200"/>
</svg>
