<svg width="25" height="24" viewBox="0 0 25 24" fill="none" xmlns="http://www.w3.org/2000/svg">
  <path d="M19.6132 16.1843L16.2431 13.1202C16.0838 12.9754 15.8745 12.8982 15.6593 12.9048C15.4441 12.9115 15.24 13.0015 15.0899 13.1558L13.106 15.1961C12.6285 15.1049 11.6684 14.8056 10.6802 13.8199C9.69195 12.8308 9.39266 11.8683 9.30395 11.3941L11.3426 9.40936C11.4971 9.25941 11.5873 9.05521 11.5939 8.83998C11.6006 8.62474 11.5232 8.41537 11.3782 8.25616L8.31489 4.88691C8.16984 4.7272 7.96824 4.63032 7.75292 4.61685C7.53759 4.60338 7.32549 4.67439 7.16168 4.81478L5.36263 6.35764C5.21929 6.50149 5.13374 6.69295 5.1222 6.89569C5.10977 7.10295 4.87266 12.0126 8.67967 15.8212C12.0009 19.1416 16.1611 19.3845 17.3068 19.3845C17.4743 19.3845 17.5771 19.3795 17.6044 19.3778C17.8072 19.3665 17.9985 19.2806 18.1417 19.1366L19.6837 17.3367C19.8247 17.1734 19.8962 16.9615 19.883 16.7462C19.8699 16.5309 19.773 16.3292 19.6132 16.1843Z" fill="white"/>
</svg>
