<svg width="40" height="40" viewBox="0 0 40 40" fill="none" xmlns="http://www.w3.org/2000/svg">
<g clip-path="url(#clip0_14_367)">
<path d="M18.83 3.65839C19.4877 3.41231 20.2063 3.38023 20.8833 3.56672L21.17 3.65839L32.8367 8.03339C33.4282 8.2552 33.9445 8.64056 34.3255 9.14456C34.7064 9.64855 34.9363 10.2504 34.9883 10.8801L35 11.1551V20.0934C34.9999 22.7941 34.2707 25.4447 32.8893 27.7654C31.508 30.0861 29.5257 31.9907 27.1517 33.2784L26.7083 33.5101L21.1183 36.3051C20.8105 36.4587 20.4743 36.5472 20.1308 36.565C19.7872 36.5828 19.4437 36.5295 19.1217 36.4084L18.8817 36.3051L13.2917 33.5101C10.876 32.3022 8.83129 30.4645 7.37334 28.1911C5.91539 25.9176 5.0983 23.2927 5.00833 20.5934L5 20.0934V11.1551C5.00001 10.5236 5.17938 9.90514 5.51722 9.37167C5.85507 8.8382 6.33749 8.41167 6.90833 8.14172L7.16333 8.03339L18.83 3.65839ZM20 6.78005L8.33333 11.1551V20.0934C8.33338 22.1851 8.89576 24.2383 9.96159 26.038C11.0274 27.8378 12.5575 29.3179 14.3917 30.3234L14.7833 30.5284L20 33.1367L25.2167 30.5284C27.0879 29.593 28.6731 28.1716 29.8064 26.4132C30.9397 24.6547 31.5794 22.6239 31.6583 20.5334L31.6667 20.0934V11.1551L20 6.78005ZM25.7217 14.3817C26.0216 14.0828 26.4241 13.9093 26.8473 13.8963C27.2706 13.8834 27.6829 14.0321 28.0005 14.3121C28.3181 14.5922 28.5172 14.9826 28.5573 15.4042C28.5975 15.8257 28.4757 16.2467 28.2167 16.5817L28.0783 16.7384L19.355 25.4634C19.0372 25.7811 18.6139 25.971 18.1653 25.9972C17.7167 26.0233 17.2741 25.8837 16.9217 25.6051L16.7617 25.4634L12.755 21.4567C12.4529 21.1575 12.2766 20.7541 12.2622 20.3291C12.2478 19.9042 12.3963 19.4898 12.6774 19.1708C12.9586 18.8517 13.351 18.6522 13.7744 18.613C14.1978 18.5739 14.6201 18.698 14.955 18.9601L15.1117 19.0984L18.0583 22.0451L25.7217 14.3817Z" fill="#13CC78" stroke="#050A17" stroke-width="0.5"/>
</g>
<defs>
<clipPath id="clip0_14_367">
<rect width="40" height="40" fill="white"/>
</clipPath>
</defs>
</svg>
